<svg width="18" height="33" viewBox="0 0 18 33" fill="none" xmlns="http://www.w3.org/2000/svg">
<mask id="path-1-outside-1_5794_26688" maskUnits="userSpaceOnUse" x="0" y="0" width="18" height="33" fill="black">
<rect fill="white" width="18" height="33"/>
<path fill-rule="evenodd" clip-rule="evenodd" d="M10.1938 14.8812C12.9356 14.3277 15 11.905 15 9C15 5.68629 12.3137 3 9 3C5.68629 3 3 5.68629 3 9C3 11.9046 5.06398 14.3272 7.80532 14.8811C7.80149 14.92 7.79953 14.9596 7.79953 14.9996V28.1996C7.79953 28.8623 8.33679 29.3996 8.99953 29.3996C9.66227 29.3996 10.1995 28.8623 10.1995 28.1996V14.9996C10.1995 14.9596 10.1976 14.9202 10.1938 14.8812Z"/>
</mask>
<path fill-rule="evenodd" clip-rule="evenodd" d="M10.1938 14.8812C12.9356 14.3277 15 11.905 15 9C15 5.68629 12.3137 3 9 3C5.68629 3 3 5.68629 3 9C3 11.9046 5.06398 14.3272 7.80532 14.8811C7.80149 14.92 7.79953 14.9596 7.79953 14.9996V28.1996C7.79953 28.8623 8.33679 29.3996 8.99953 29.3996C9.66227 29.3996 10.1995 28.8623 10.1995 28.1996V14.9996C10.1995 14.9596 10.1976 14.9202 10.1938 14.8812Z" fill="white"/>
<path d="M10.1938 14.8812L9.6001 11.9406L6.94407 12.4768L7.20803 15.1735L10.1938 14.8812ZM7.80532 14.8811L10.791 15.1738L11.0554 12.4771L8.39944 11.9405L7.80532 14.8811ZM12 9C12 10.449 10.9697 11.6641 9.6001 11.9406L10.7874 17.8219C14.9014 16.9914 18 13.3609 18 9H12ZM9 6C10.6569 6 12 7.34315 12 9H18C18 4.02944 13.9706 0 9 0V6ZM6 9C6 7.34315 7.34315 6 9 6V0C4.02944 0 0 4.02944 0 9H6ZM8.39944 11.9405C7.03006 11.6638 6 10.4488 6 9H0C0 13.3604 3.0979 16.9906 7.21119 17.8216L8.39944 11.9405ZM10.7995 14.9996C10.7995 15.0577 10.7967 15.1159 10.791 15.1738L4.81963 14.5883C4.80631 14.7242 4.79953 14.8614 4.79953 14.9996H10.7995ZM10.7995 28.1996V14.9996H4.79953V28.1996H10.7995ZM8.99953 26.3996C9.99365 26.3996 10.7995 27.2055 10.7995 28.1996H4.79953C4.79953 30.5192 6.67993 32.3996 8.99953 32.3996V26.3996ZM7.19953 28.1996C7.19953 27.2055 8.00542 26.3996 8.99953 26.3996V32.3996C11.3191 32.3996 13.1995 30.5192 13.1995 28.1996H7.19953ZM7.19953 14.9996V28.1996H13.1995V14.9996H7.19953ZM7.20803 15.1735C7.20238 15.1157 7.19953 15.0577 7.19953 14.9996H13.1995C13.1995 14.8616 13.1928 14.7246 13.1795 14.589L7.20803 15.1735Z" fill="#028F68" mask="url(#path-1-outside-1_5794_26688)"/>
</svg>
